<!--
  - MIT License
  -
  - Copyright (c) 2020 Ben Davies
  -
  - Permission is hereby granted, free of charge, to any person obtaining a copy
  - of this software and associated documentation files (the "Software"), to deal
  - in the Software without restriction, including without limitation the rights
  - to use, copy, modify, merge, publish, distribute, sublicense, and/or sell
  - copies of the Software, and to permit persons to whom the Software is
  - furnished to do so, subject to the following conditions:
  -
  - The above copyright notice and this permission notice shall be included in all
  - copies or substantial portions of the Software.
  -
  - THE SOFTWARE IS PROVIDED "AS IS", WITHOUT WARRANTY OF ANY KIND, EXPRESS OR
  - IMPLIED, INCLUDING BUT NOT LIMITED TO THE WARRANTIES OF MERCHANTABILITY,
  - FITNESS FOR A PARTICULAR PURPOSE AND NONINFRINGEMENT. IN NO EVENT SHALL THE
  - AUTHORS OR COPYRIGHT HOLDERS BE LIABLE FOR ANY CLAIM, DAMAGES OR OTHER
  - LIABILITY, WHETHER IN AN ACTION OF CONTRACT, TORT OR OTHERWISE, ARISING FROM,
  - OUT OF OR IN CONNECTION WITH THE SOFTWARE OR THE USE OR OTHER DEALINGS IN THE
  - SOFTWARE.
  -
  -->

<svg width="449" height="70" viewBox="0 0 449 70" fill="none" xmlns="http://www.w3.org/2000/svg">
<rect width="449" height="70" rx="25" fill="#20B6CB"/>
<path d="M141.636 30.2812C141.457 29.6591 141.206 29.1094 140.882 28.6321C140.558 28.1463 140.162 27.7372 139.693 27.4048C139.233 27.0639 138.705 26.804 138.108 26.625C137.52 26.446 136.868 26.3565 136.152 26.3565C134.814 26.3565 133.638 26.6889 132.624 27.3537C131.618 28.0185 130.834 28.9858 130.271 30.2557C129.709 31.517 129.428 33.0597 129.428 34.8835C129.428 36.7074 129.705 38.2585 130.259 39.5369C130.813 40.8153 131.597 41.7912 132.611 42.4645C133.625 43.1293 134.822 43.4616 136.203 43.4616C137.456 43.4616 138.526 43.2401 139.412 42.7969C140.307 42.3452 140.989 41.7102 141.457 40.892C141.935 40.0739 142.173 39.1065 142.173 37.9901L143.298 38.1562H136.548V33.9886H147.504V37.2869C147.504 39.5881 147.018 41.5653 146.047 43.2188C145.075 44.8636 143.737 46.1335 142.033 47.0284C140.328 47.9148 138.376 48.358 136.178 48.358C133.723 48.358 131.567 47.8168 129.709 46.7344C127.851 45.6435 126.402 44.0966 125.362 42.0938C124.331 40.0824 123.815 37.696 123.815 34.9347C123.815 32.8125 124.122 30.9205 124.736 29.2585C125.358 27.5881 126.227 26.1733 127.344 25.0142C128.46 23.8551 129.76 22.973 131.243 22.3679C132.726 21.7628 134.332 21.4602 136.062 21.4602C137.545 21.4602 138.926 21.6776 140.205 22.1122C141.483 22.5384 142.616 23.1435 143.605 23.9276C144.602 24.7116 145.416 25.6449 146.047 26.7273C146.678 27.8011 147.082 28.9858 147.261 30.2812H141.636ZM160.509 48.3835C158.489 48.3835 156.75 47.9744 155.293 47.1562C153.844 46.3295 152.728 45.1619 151.944 43.6534C151.159 42.1364 150.767 40.3423 150.767 38.2713C150.767 36.2514 151.159 34.4787 151.944 32.9531C152.728 31.4276 153.831 30.2386 155.255 29.3864C156.686 28.5341 158.365 28.108 160.292 28.108C161.587 28.108 162.793 28.3168 163.909 28.7344C165.034 29.1435 166.015 29.7614 166.85 30.5881C167.694 31.4148 168.35 32.4545 168.819 33.7074C169.287 34.9517 169.522 36.4091 169.522 38.0795V39.5753H152.941V36.2003H164.395C164.395 35.4162 164.225 34.7216 163.884 34.1165C163.543 33.5114 163.07 33.0384 162.465 32.6974C161.868 32.348 161.174 32.1733 160.381 32.1733C159.554 32.1733 158.821 32.3651 158.182 32.7486C157.551 33.1236 157.057 33.6307 156.699 34.2699C156.341 34.9006 156.158 35.6037 156.15 36.3793V39.5881C156.15 40.5597 156.328 41.3991 156.686 42.1065C157.053 42.8139 157.569 43.3594 158.233 43.7429C158.898 44.1264 159.686 44.3182 160.598 44.3182C161.203 44.3182 161.757 44.233 162.26 44.0625C162.763 43.892 163.194 43.6364 163.551 43.2955C163.909 42.9545 164.182 42.5369 164.37 42.0426L169.407 42.375C169.151 43.5852 168.627 44.642 167.834 45.5455C167.05 46.4403 166.036 47.1392 164.792 47.642C163.556 48.1364 162.128 48.3835 160.509 48.3835ZM183.52 28.3636V32.4545H171.695V28.3636H183.52ZM174.38 23.6591H179.826V41.9659C179.826 42.4687 179.902 42.8608 180.056 43.142C180.209 43.4148 180.422 43.6065 180.695 43.7173C180.976 43.8281 181.3 43.8835 181.667 43.8835C181.922 43.8835 182.178 43.8622 182.434 43.8196C182.689 43.7685 182.885 43.7301 183.022 43.7045L183.878 47.7571C183.605 47.8423 183.222 47.9403 182.728 48.0511C182.233 48.1705 181.632 48.2429 180.925 48.2685C179.613 48.3196 178.462 48.1449 177.473 47.7443C176.493 47.3437 175.73 46.7216 175.185 45.8778C174.64 45.0341 174.371 43.9687 174.38 42.6818V23.6591ZM209.705 29.348C209.603 28.3168 209.164 27.5156 208.388 26.9446C207.613 26.3736 206.56 26.0881 205.231 26.0881C204.327 26.0881 203.565 26.2159 202.942 26.4716C202.32 26.7188 201.843 27.0639 201.511 27.5071C201.187 27.9503 201.025 28.4531 201.025 29.0156C201.008 29.4844 201.106 29.8935 201.319 30.2429C201.54 30.5923 201.843 30.8949 202.227 31.1506C202.61 31.3977 203.053 31.6151 203.556 31.8026C204.059 31.9815 204.596 32.1349 205.167 32.2628L207.519 32.8253C208.661 33.081 209.71 33.4219 210.664 33.848C211.619 34.2741 212.445 34.7983 213.144 35.4205C213.843 36.0426 214.384 36.7756 214.768 37.6193C215.16 38.4631 215.36 39.4304 215.369 40.5213C215.36 42.1236 214.951 43.5128 214.141 44.6889C213.34 45.8565 212.181 46.7642 210.664 47.4119C209.156 48.0511 207.336 48.3707 205.205 48.3707C203.092 48.3707 201.251 48.0469 199.683 47.3991C198.123 46.7514 196.904 45.7926 196.026 44.5227C195.157 43.2443 194.701 41.6634 194.658 39.7798H200.015C200.075 40.6577 200.326 41.3906 200.769 41.9787C201.221 42.5582 201.822 42.9972 202.572 43.2955C203.33 43.5852 204.187 43.7301 205.141 43.7301C206.079 43.7301 206.893 43.5937 207.583 43.321C208.282 43.0483 208.823 42.669 209.207 42.1832C209.59 41.6974 209.782 41.1392 209.782 40.5085C209.782 39.9205 209.607 39.4261 209.258 39.0256C208.917 38.625 208.414 38.2841 207.749 38.0028C207.093 37.7216 206.288 37.4659 205.333 37.2358L202.482 36.5199C200.275 35.983 198.532 35.1435 197.254 34.0014C195.975 32.8594 195.34 31.321 195.349 29.3864C195.34 27.8011 195.762 26.4162 196.614 25.2315C197.475 24.0469 198.656 23.1222 200.156 22.4574C201.656 21.7926 203.36 21.4602 205.269 21.4602C207.212 21.4602 208.908 21.7926 210.357 22.4574C211.815 23.1222 212.948 24.0469 213.758 25.2315C214.567 26.4162 214.985 27.7884 215.011 29.348H209.705ZM229.434 28.3636V32.4545H217.609V28.3636H229.434ZM220.294 23.6591H225.74V41.9659C225.74 42.4687 225.816 42.8608 225.97 43.142C226.123 43.4148 226.336 43.6065 226.609 43.7173C226.89 43.8281 227.214 43.8835 227.581 43.8835C227.836 43.8835 228.092 43.8622 228.348 43.8196C228.603 43.7685 228.799 43.7301 228.936 43.7045L229.792 47.7571C229.52 47.8423 229.136 47.9403 228.642 48.0511C228.147 48.1705 227.547 48.2429 226.839 48.2685C225.527 48.3196 224.376 48.1449 223.387 47.7443C222.407 47.3437 221.645 46.7216 221.099 45.8778C220.554 45.0341 220.285 43.9687 220.294 42.6818V23.6591ZM238.581 48.3707C237.328 48.3707 236.212 48.1534 235.232 47.7188C234.252 47.2756 233.476 46.6236 232.905 45.7628C232.343 44.8935 232.061 43.8111 232.061 42.5156C232.061 41.4247 232.262 40.5085 232.662 39.767C233.063 39.0256 233.608 38.429 234.299 37.9773C234.989 37.5256 235.773 37.1847 236.651 36.9545C237.537 36.7244 238.466 36.5625 239.438 36.4688C240.58 36.3494 241.5 36.2386 242.199 36.1364C242.898 36.0256 243.405 35.8636 243.721 35.6506C244.036 35.4375 244.194 35.1222 244.194 34.7045V34.6278C244.194 33.8182 243.938 33.1918 243.426 32.7486C242.924 32.3054 242.208 32.0838 241.279 32.0838C240.299 32.0838 239.519 32.3011 238.939 32.7358C238.36 33.1619 237.976 33.6989 237.789 34.3466L232.752 33.9375C233.007 32.7443 233.51 31.7131 234.26 30.8438C235.01 29.9659 235.978 29.2926 237.162 28.8239C238.355 28.3466 239.736 28.108 241.304 28.108C242.395 28.108 243.439 28.2358 244.436 28.4915C245.442 28.7472 246.333 29.1435 247.108 29.6804C247.892 30.2173 248.51 30.9077 248.962 31.7514C249.414 32.5866 249.64 33.5881 249.64 34.7557V48H244.475V45.277H244.321C244.006 45.8906 243.584 46.4318 243.056 46.9006C242.527 47.3608 241.892 47.723 241.151 47.9872C240.409 48.2429 239.553 48.3707 238.581 48.3707ZM240.141 44.6122C240.942 44.6122 241.65 44.4545 242.263 44.1392C242.877 43.8153 243.358 43.3807 243.708 42.8352C244.057 42.2898 244.232 41.6719 244.232 40.9815V38.8977C244.061 39.0085 243.827 39.1108 243.529 39.2045C243.239 39.2898 242.911 39.3707 242.544 39.4474C242.178 39.5156 241.811 39.5795 241.445 39.6392C241.078 39.6903 240.746 39.7372 240.448 39.7798C239.809 39.8736 239.25 40.0227 238.773 40.2273C238.296 40.4318 237.925 40.7088 237.661 41.0582C237.397 41.3991 237.265 41.8253 237.265 42.3366C237.265 43.0781 237.533 43.6449 238.07 44.0369C238.615 44.4205 239.306 44.6122 240.141 44.6122ZM253.865 48V28.3636H259.145V31.7898H259.349C259.707 30.571 260.308 29.6506 261.152 29.0284C261.995 28.3977 262.967 28.0824 264.066 28.0824C264.339 28.0824 264.633 28.0994 264.949 28.1335C265.264 28.1676 265.541 28.2145 265.779 28.2741V33.1065C265.524 33.0298 265.17 32.9616 264.718 32.902C264.267 32.8423 263.853 32.8125 263.478 32.8125C262.677 32.8125 261.961 32.9872 261.331 33.3366C260.708 33.6776 260.214 34.1548 259.848 34.7685C259.49 35.3821 259.311 36.0895 259.311 36.8906V48H253.865ZM280.024 28.3636V32.4545H268.199V28.3636H280.024ZM270.884 23.6591H276.33V41.9659C276.33 42.4687 276.406 42.8608 276.56 43.142C276.713 43.4148 276.926 43.6065 277.199 43.7173C277.48 43.8281 277.804 43.8835 278.17 43.8835C278.426 43.8835 278.682 43.8622 278.938 43.8196C279.193 43.7685 279.389 43.7301 279.526 43.7045L280.382 47.7571C280.109 47.8423 279.726 47.9403 279.232 48.0511C278.737 48.1705 278.136 48.2429 277.429 48.2685C276.116 48.3196 274.966 48.1449 273.977 47.7443C272.997 47.3437 272.234 46.7216 271.689 45.8778C271.143 45.0341 270.875 43.9687 270.884 42.6818V23.6591ZM292.31 48.3835C290.29 48.3835 288.551 47.9744 287.094 47.1562C285.645 46.3295 284.528 45.1619 283.744 43.6534C282.96 42.1364 282.568 40.3423 282.568 38.2713C282.568 36.2514 282.96 34.4787 283.744 32.9531C284.528 31.4276 285.632 30.2386 287.055 29.3864C288.487 28.5341 290.166 28.108 292.092 28.108C293.388 28.108 294.594 28.3168 295.71 28.7344C296.835 29.1435 297.815 29.7614 298.651 30.5881C299.494 31.4148 300.151 32.4545 300.619 33.7074C301.088 34.9517 301.322 36.4091 301.322 38.0795V39.5753H284.741V36.2003H296.196C296.196 35.4162 296.026 34.7216 295.685 34.1165C295.344 33.5114 294.871 33.0384 294.266 32.6974C293.669 32.348 292.974 32.1733 292.182 32.1733C291.355 32.1733 290.622 32.3651 289.983 32.7486C289.352 33.1236 288.858 33.6307 288.5 34.2699C288.142 34.9006 287.959 35.6037 287.95 36.3793V39.5881C287.95 40.5597 288.129 41.3991 288.487 42.1065C288.854 42.8139 289.369 43.3594 290.034 43.7429C290.699 44.1264 291.487 44.3182 292.399 44.3182C293.004 44.3182 293.558 44.233 294.061 44.0625C294.564 43.892 294.994 43.6364 295.352 43.2955C295.71 42.9545 295.983 42.5369 296.17 42.0426L301.207 42.375C300.952 43.5852 300.428 44.642 299.635 45.5455C298.851 46.4403 297.837 47.1392 296.592 47.642C295.357 48.1364 293.929 48.3835 292.31 48.3835ZM312.112 48.3196C310.621 48.3196 309.27 47.9361 308.06 47.169C306.858 46.3935 305.903 45.2557 305.196 43.7557C304.497 42.2472 304.148 40.3977 304.148 38.2074C304.148 35.9574 304.51 34.0866 305.234 32.5952C305.959 31.0952 306.922 29.9744 308.124 29.233C309.334 28.483 310.659 28.108 312.099 28.108C313.199 28.108 314.115 28.2955 314.848 28.6705C315.589 29.0369 316.186 29.4972 316.638 30.0511C317.098 30.5966 317.447 31.1335 317.686 31.6619H317.852V21.8182H323.286V48H317.916V44.8551H317.686C317.43 45.4006 317.068 45.9418 316.599 46.4787C316.139 47.0071 315.538 47.446 314.797 47.7955C314.064 48.1449 313.169 48.3196 312.112 48.3196ZM313.838 43.9858C314.716 43.9858 315.457 43.7472 316.062 43.2699C316.676 42.7841 317.145 42.1065 317.469 41.2372C317.801 40.3679 317.967 39.3494 317.967 38.1818C317.967 37.0142 317.805 36 317.482 35.1392C317.158 34.2784 316.689 33.6136 316.075 33.1449C315.462 32.6761 314.716 32.4418 313.838 32.4418C312.943 32.4418 312.189 32.6847 311.575 33.1705C310.962 33.6562 310.497 34.3295 310.182 35.1903C309.866 36.0511 309.709 37.0483 309.709 38.1818C309.709 39.3239 309.866 40.3338 310.182 41.2116C310.506 42.081 310.97 42.7628 311.575 43.2571C312.189 43.7429 312.943 43.9858 313.838 43.9858Z" fill="white"/>
</svg>
